<?xml version="1.0" encoding="utf-8"?>
<!-- Generator: Adobe Illustrator 28.0.0, SVG Export Plug-In . SVG Version: 6.00 Build 0)  -->
<svg version="1.1" id="Layer_1" xmlns="http://www.w3.org/2000/svg" xmlns:xlink="http://www.w3.org/1999/xlink" x="0px" y="0px"
	 viewBox="0 0 512 512" style="enable-background:new 0 0 512 512;" xml:space="preserve">
<style type="text/css">
	.st0{fill:#FFFFFF;}
</style>
<g>
	<g>
		<path class="st0" d="M138.8,273.1l-29,58.6h29.3c8.5,0,16.3-4.8,20.1-12.5l16.5-33.3c4-8.1,3.9-17.6-0.2-25.6l-36.6-71.2
			C148.7,215.2,155.6,239.1,138.8,273.1z"/>
		<path class="st0" d="M138.8,273.1L79.5,157.6h30.8c7.6,0,14.6,4.3,18.1,11l10.5,20.4C148.6,215.2,155.6,239.1,138.8,273.1z"/>
		<path class="st0" d="M165.4,240.8c-1,9.9-3.9,20.5-9.8,32.3l-29,58.6h-16.8l29-58.6c16.8-33.9,9.8-57.9,0-84L165.4,240.8z"/>
		<path class="st0" d="M48.2,273.7l29-58.6l-29.3,0c-8.5,0-16.3,4.8-20.1,12.5l-16.5,33.3c-4,8.1-3.9,17.6,0.2,25.6l36.6,71.2
			C38.4,331.6,31.4,307.7,48.2,273.7z"/>
		<path class="st0" d="M48.2,273.7l59.3,115.4H76.8c-7.6,0-14.6-4.3-18.1-11l-10.5-20.4C38.4,331.6,31.4,307.7,48.2,273.7z"/>
		<path class="st0" d="M21.7,306c1-9.9,3.9-20.5,9.8-32.3l29-58.6l16.8,0l-29,58.6c-16.8,33.9-9.8,57.9,0,84L21.7,306z"/>
	</g>
	<g>
		<g>
			<g>
				<path class="st0" d="M226.7,234.9H198l2.5-4.9h14c-0.3-2.8-1.3-5-2.9-6.6c-1.4-1.4-2.7-2.1-4.1-2.1v-4.8c3.4,0,6.1,1.1,8.2,3.3
					c2.2,2.3,3.6,5.7,4.2,10.2h6.8V234.9z"/>
				<path class="st0" d="M237.4,230v4.9h-11.6V230H237.4z"/>
				<path class="st0" d="M248.1,230v4.9h-11.6V230H248.1z"/>
				<path class="st0" d="M258.7,230v4.9h-11.6V230H258.7z"/>
				<path class="st0" d="M281.5,234.9h-4.5c-1.5,0-2.8-0.7-3.9-1.9c-0.6-0.7-1-1.4-1.3-2.2c-0.9,2.5-3.5,4-6.2,4.1h-7.9V230h5.9
					c1,0,1.8-0.3,2.6-0.8c1.1-0.7,1.6-1.6,1.6-2.7l-0.1-10h5.3c0,1.9,0.1,4.5,0.2,7.8c0,1.8,0.5,3.2,1.6,4.2c0.9,1,1.8,1.4,2.8,1.4
					h4v1.3v2.4V234.9z M268.1,242.5h-4.9v-5.1h4.9V242.5z M275.4,242.5h-4.8v-5.1h4.8V242.5z"/>
				<path class="st0" d="M308.1,234.9h-27.6V230h22.1c-1-5.9-3.9-8.9-8.7-8.9c-3.1,0-5.3,0.6-6.7,1.7l-2.1-4.1c2-1.8,5-2.6,8.9-2.6
					c4.9,0,8.6,2.1,11.1,6.1C307.1,225.5,308.1,229.7,308.1,234.9z"/>
				<path class="st0" d="M316.4,241.6c4.6,0,8.6-2.6,10.2-6.7H323c-5,0-8.4-4.2-8.4-9c0-5.7,4.2-9.5,9.4-9.5c5.5,0,8.7,3.1,8.7,7.9
					v5.8c0,8.7-5.1,15-13,15.6C318.9,244.8,317.8,243.4,316.4,241.6z M327.3,230c-0.1-4.1-0.1-6.4-0.1-6.8c0-1.1-1.5-3.1-3.3-3.1
					c-2.3,0-4.1,2.1-4.1,5.5c0,2.4,1.7,4.3,3.8,4.3H327.3z"/>
				<path class="st0" d="M374.7,234.9h-7.1c-3.6,0-5.3-1.8-5.3-5.4H356c-4,0-6-2.4-6-7.3c0-3.2,0.9-5.6,2.6-7.2
					c1.4-1.4,2.9-2.1,4.7-2.1c2.1,0,3.7,0.8,4.9,2.2h0.1v-1.8h5.3l0.1,14.2c0,1.7,0.7,2.5,2.1,2.5h5.1V234.9z M358.5,208.7h-4.8
					v-5.1h4.8V208.7z M362.3,224.6l-0.1-4.1c-1-1.6-2.2-2.3-3.6-2.3c-2.3,0-3.4,1.4-3.2,4c0.1,1.6,0.9,2.4,2.5,2.4H362.3z
					 M365.8,208.7H361v-5.1h4.8V208.7z"/>
				<path class="st0" d="M385.4,230v4.9h-11.6V230H385.4z"/>
				<path class="st0" d="M396.1,230v4.9h-11.6V230H396.1z"/>
				<path class="st0" d="M406.7,230v4.9h-11.6V230H406.7z"/>
				<path class="st0" d="M431.8,234.9h-26V230h20.5c-0.4-2.8-1.5-4.9-3.3-6.4c-1.7-1.4-3.7-2.1-6.1-2.1c-2.6,0-5,0.8-7.5,2.4l-2-4.1
					l13.5-13.6l3.7,3.7l-6.9,6.8c5,0,8.7,1.9,11,5.6C430.8,225.3,431.8,229.6,431.8,234.9z"/>
				<path class="st0" d="M430.9,241.6c6.3-0.1,11-4.6,11-10.9v-14.2h5.3v8.4c0.3,2.8,2.3,5.1,4.4,5.1h5.6v4.9H452
					c-2,0-3.5-1.1-4.7-3.1c-0.5,7.8-5.7,13.4-13.1,14C433.5,244.8,432.4,243.4,430.9,241.6z"/>
				<path class="st0" d="M494.2,227.4c-0.1,5.4-2.4,8.1-7.2,8.2c-3.1,0.1-5.3-1.3-6.7-4c-1.1,2.6-3.3,3.9-6.4,4
					c-2.5,0.1-4.5-0.9-5.9-2.6v1.9h-11.7l0.1-4.9h6.4c-0.1-6.8-0.1-10.8-0.2-12h5.3v7.3v0.2c0.2,1.5,0.6,2.7,1.5,3.6
					c0.9,0.9,1.9,1.4,3.3,1.4c2.1,0,3.1-1.2,3.1-3.4c0-0.7,0-3.7-0.1-9h5.3c0.1,1.4,0.1,3.7,0.1,6.8c0.1,1.9,0.5,3.3,1.5,4.2
					c0.9,0.9,1.9,1.4,3.3,1.4c2.1,0,3.1-1.1,3.1-3.4c0,0.2,0-3.3-0.1-10.5h5.3L494.2,227.4z M477.1,212.5h-4.9v-5.1h4.9V212.5z
					 M480.7,205.8h-4.8v-5h4.8V205.8z M484.3,212.5h-4.9v-5.1h4.9V212.5z"/>
				<path class="st0" d="M225.7,292c0,3.9-1.3,7.2-3.9,10c-2.6,2.8-5.7,4.2-9.4,4.2s-6.8-1.4-9.4-4.2c-2.6-2.8-3.9-6.1-3.9-10.1
					l-0.2-10.3h5.4c0,3.9,0,7.3,0.1,10.4c0,2.4,0.8,4.4,2.4,6.1c1.6,1.7,3.5,2.6,5.7,2.6c2.2,0,4.1-0.9,5.7-2.6
					c1.6-1.7,2.4-3.8,2.4-6.2l-0.4-29.8h5.4L225.7,292z"/>
				<path class="st0" d="M243.8,295.3h-6.2c-1.4,0-2.6-0.5-3.6-1.5c-1.1-1.1-1.7-2.6-1.7-4.5l-0.2-26.6h5.3l0.2,24.5
					c0,1.8,0.9,3.2,2.3,3.2h3.8V295.3z"/>
				<path class="st0" d="M270.3,295.3h-5.2c-1.5,3.1-4.2,4.6-8.1,4.6c-3.8,0-6.5-1.5-8.3-4.6h-5.8v-4.9h4.5c0-5.8,3.5-9.5,9.2-9.5
					c3,0,5.3,1,7.1,3c1.7,1.8,2.5,4,2.5,6.5h4.1V295.3z M260.9,290.4c0-1.6-0.5-2.8-1.3-3.8c-0.8-0.9-1.7-1.3-2.8-1.3
					c-1.1,0-2,0.4-2.7,1.3c-0.8,0.9-1.2,2.2-1.2,3.8c0,1.6,0.5,2.9,1.3,3.8c0.8,0.9,1.7,1.3,2.8,1.3
					C259.2,295.5,260.9,293.6,260.9,290.4z"/>
				<path class="st0" d="M293.6,295.3h-24.1v-4.9h8.2c-0.5-0.5-0.8-1-1.1-1.6c-0.8-1.4-1.2-2.8-1.2-4.4c-0.1-2.6,0.9-4.7,2.8-6.2
					c1.6-1.3,3.5-2,5.8-2c3,0,5.3,1.1,7.1,3.3l-2.8,3.9c-1.1-1.3-2.3-1.9-3.7-1.9c-2.2,0-3.7,1.6-3.7,3.8c0,3.2,2.4,5.1,5.8,5.1h5.1
					L293.6,295.3z"/>
				<path class="st0" d="M306.7,259.6h-9l1.2-2.5h2.2c-0.3-0.5-0.5-1-0.5-1.6c0-2,1.5-3.6,3.3-3.6c1.1,0,1.9,0.5,2.7,1.4l-1.2,1.9
					c-0.4-0.5-0.9-0.7-1.4-0.7c-0.6,0-0.9,0.4-0.9,1.2c0,0.9,0.7,1.4,1.9,1.4h1.7V259.6z M316.2,285.4c0,2.9-1.2,5.3-3.7,7.1
					c-2.4,1.8-5.5,2.7-9.4,2.7h-4.3v-4.9h2.2c2.4,0,4.4-0.5,6.1-1.4c2.4-1.3,3.6-3.3,3.6-5.9c0-0.2-0.1-6.9-0.3-20.3h5.4
					L316.2,285.4z M306.2,285.1c-1,1.3-3.4,1.8-5.3,1.9l-0.3-24.3h5.3L306.2,285.1z"/>
				<path class="st0" d="M328.2,295.3h-5.3l-0.3-32.5h5.3L328.2,295.3z"/>
				<path class="st0" d="M376.4,291.3c-0.4,2.4-2.1,3.9-4.7,3.9h-15.6c-5,0-8.7-2.1-11-6.2c-1.9-3.3-2.7-7.3-2.6-12.2h5.3
					c0,3.6,0.6,6.5,1.7,8.9c1.5,3.1,3.8,4.6,6.9,4.6h12.8c1.3,0,2-1,2-2.8l-0.2-10.7h5.3C376.4,279.5,376.4,284.3,376.4,291.3z
					 M358.8,276.9h-4.8v-5.1h4.8V276.9z M366,276.9h-4.8v-5.1h4.8V276.9z"/>
				<path class="st0" d="M394.6,295.3h-6.2c-1.4,0-2.6-0.5-3.6-1.5c-1.1-1.1-1.7-2.6-1.7-4.5l-0.2-26.6h5.3l0.2,24.5
					c0,1.8,0.9,3.2,2.3,3.2h3.8V295.3z"/>
				<path class="st0" d="M417.3,285.8c0,5.8-3.3,9.5-9,9.5h-14.8v-4.9h6.1c-0.7-1.5-1.1-3-1.1-4.6c0-5.8,3.4-9.5,9.2-9.5
					c2.9,0,5.3,1,7.1,3C416.5,281.2,417.3,283.3,417.3,285.8z M412.1,285.9c0-1.6-0.5-2.9-1.3-3.8c-0.8-0.9-1.7-1.3-2.8-1.3
					c-1.2,0-2.1,0.4-2.8,1.3c-0.8,1-1.1,2.2-1.1,3.8c0,1.6,0.5,2.9,1.3,3.8c0.8,0.9,1.7,1.3,2.8,1.3
					C410.5,290.9,412.1,289.1,412.1,285.9z"/>
				<path class="st0" d="M452.2,295.3h-28.8l2.5-4.9h14c-0.3-2.8-1.3-5-2.9-6.6c-1.4-1.4-2.7-2.1-4.1-2.1v-4.8
					c3.4,0,6.1,1.1,8.2,3.3c2.2,2.3,3.6,5.7,4.2,10.2h6.8V295.3z"/>
				<path class="st0" d="M483.3,295.3h-5.9h-26.2v-4.9h22.1c-1-6-3.9-9-8.8-9c-3.1,0-5.3,0.6-6.7,1.7l-2.1-4.1c2-1.8,5-2.6,8.9-2.6
					c4.1,0,7.3,1.4,9.7,4.3c2.1,2.4,3.4,5.6,4,9.7h4.9V295.3z M467.7,272.8h-4.9v-5.1h4.9V272.8z"/>
				<path class="st0" d="M494.5,288.7c0,4-2.4,6.5-6.8,6.5h-5.3v-4.9h3.4c2,0,3.4-1.2,3.4-3.5c0-3.1-0.1-7.1-0.1-12.1
					c-0.1-5.6-0.1-9.7-0.1-12.1h5.3c0.1,2.3,0.1,6.6,0.1,13C494.4,281.2,494.5,285.5,494.5,288.7z"/>
			</g>
		</g>
		<g>
			<path class="st0" d="M203.4,337.9l-4.2-16.6h2.3l2,8.4c0.5,2.1,0.9,4.1,1.2,5.8h0c0.3-1.7,0.8-3.6,1.4-5.8l2.2-8.4h2.2l2,8.4
				c0.5,2,0.9,4,1.2,5.7h0c0.3-1.8,0.8-3.7,1.3-5.8l2.2-8.4h2.2l-4.7,16.6h-2.2l-2.1-8.7c-0.5-2.1-0.9-3.8-1.1-5.4h0
				c-0.3,1.7-0.7,3.3-1.3,5.4l-2.4,8.7H203.4z"/>
			<path class="st0" d="M227.3,337.9l-0.2-1.5h-0.1c-0.7,0.9-2,1.8-3.7,1.8c-2.4,0-3.7-1.7-3.7-3.4c0-2.9,2.6-4.5,7.2-4.4V330
				c0-1-0.3-2.8-2.7-2.8c-1.1,0-2.3,0.3-3.1,0.9l-0.5-1.4c1-0.6,2.4-1.1,3.9-1.1c3.7,0,4.5,2.5,4.5,4.9v4.5c0,1,0,2,0.2,2.9H227.3z
				 M227,331.8c-2.4,0-5.1,0.4-5.1,2.7c0,1.4,0.9,2.1,2,2.1c1.6,0,2.5-1,2.9-2c0.1-0.2,0.1-0.5,0.1-0.7V331.8z"/>
			<path class="st0" d="M232.6,320.4h2.2v7.5h0c0.3-0.6,0.9-1.2,1.6-1.5c0.6-0.4,1.4-0.6,2.2-0.6c1.6,0,4.2,1,4.2,5.1v7.1h-2.2V331
				c0-1.9-0.7-3.6-2.8-3.6c-1.4,0-2.5,1-2.9,2.2c-0.1,0.3-0.1,0.6-0.1,1v7.2h-2.2V320.4z"/>
			<path class="st0" d="M247.5,332.3c0,2.9,1.9,4.1,4.1,4.1c1.6,0,2.5-0.3,3.3-0.6l0.4,1.6c-0.8,0.3-2.1,0.7-4,0.7
				c-3.7,0-5.9-2.4-5.9-6c0-3.6,2.1-6.4,5.6-6.4c3.9,0,4.9,3.4,4.9,5.6c0,0.4,0,0.8-0.1,1H247.5z M253.9,330.8c0-1.4-0.6-3.5-3-3.5
				c-2.2,0-3.2,2-3.3,3.5H253.9z"/>
			<path class="st0" d="M259.9,332.3c0,2.9,1.9,4.1,4.1,4.1c1.6,0,2.5-0.3,3.3-0.6l0.4,1.6c-0.8,0.3-2.1,0.7-4,0.7
				c-3.7,0-5.9-2.4-5.9-6c0-3.6,2.1-6.4,5.6-6.4c3.9,0,4.9,3.4,4.9,5.6c0,0.4,0,0.8-0.1,1H259.9z M266.3,330.8c0-1.4-0.6-3.5-3-3.5
				c-2.2,0-3.2,2-3.3,3.5H266.3z"/>
			<path class="st0" d="M281.4,320.4v14.4c0,1.1,0,2.3,0.1,3.1h-2l-0.1-2.1h0c-0.7,1.3-2.1,2.3-4.1,2.3c-2.9,0-5.1-2.4-5.1-6.1
				c0-4,2.4-6.4,5.4-6.4c1.8,0,3.1,0.9,3.6,1.8h0v-7.1H281.4z M279.2,330.8c0-0.3,0-0.6-0.1-0.9c-0.3-1.4-1.5-2.5-3.1-2.5
				c-2.2,0-3.6,2-3.6,4.6c0,2.4,1.2,4.4,3.5,4.4c1.5,0,2.8-1,3.2-2.6c0.1-0.3,0.1-0.6,0.1-0.9V330.8z"/>
			<path class="st0" d="M290.3,321.5c0.9-0.2,2.4-0.3,3.9-0.3c2.1,0,3.5,0.4,4.6,1.2c0.9,0.6,1.4,1.6,1.4,2.9c0,1.6-1.1,3-2.8,3.7v0
				c1.6,0.4,3.4,1.7,3.4,4.2c0,1.4-0.6,2.5-1.4,3.3c-1.2,1.1-3,1.6-5.8,1.6c-1.5,0-2.6-0.1-3.3-0.2V321.5z M292.5,328.3h2
				c2.3,0,3.6-1.2,3.6-2.8c0-2-1.5-2.7-3.7-2.7c-1,0-1.6,0.1-1.9,0.1V328.3z M292.5,336.3c0.4,0.1,1,0.1,1.8,0.1
				c2.2,0,4.3-0.8,4.3-3.2c0-2.3-2-3.2-4.3-3.2h-1.8V336.3z"/>
			<path class="st0" d="M313.6,334.6c0,1.2,0,2.3,0.1,3.3h-1.9l-0.1-2h0c-0.6,1-1.8,2.2-4,2.2c-1.9,0-4.1-1-4.1-5.2v-7h2.2v6.6
				c0,2.3,0.7,3.8,2.7,3.8c1.5,0,2.5-1,2.9-2c0.1-0.3,0.2-0.7,0.2-1.1v-7.3h2.2V334.6z"/>
			<path class="st0" d="M316.9,335.7c0.6,0.4,1.8,0.9,2.9,0.9c1.6,0,2.3-0.8,2.3-1.8c0-1-0.6-1.6-2.2-2.2c-2.1-0.8-3.2-2-3.2-3.4
				c0-1.9,1.6-3.5,4.1-3.5c1.2,0,2.3,0.3,2.9,0.7l-0.5,1.6c-0.5-0.3-1.3-0.7-2.4-0.7c-1.3,0-2,0.7-2,1.6c0,1,0.7,1.4,2.3,2
				c2.1,0.8,3.1,1.8,3.1,3.6c0,2.1-1.6,3.6-4.5,3.6c-1.3,0-2.5-0.3-3.4-0.8L316.9,335.7z"/>
			<path class="st0" d="M329.4,322.6c0,0.7-0.5,1.3-1.4,1.3c-0.8,0-1.3-0.6-1.3-1.3c0-0.8,0.6-1.4,1.4-1.4
				C328.9,321.2,329.4,321.8,329.4,322.6z M327,337.9v-12h2.2v12H327z"/>
			<path class="st0" d="M332.8,329.2c0-1.2,0-2.2-0.1-3.2h1.9l0.1,2h0c0.6-1.1,2-2.2,4-2.2c1.7,0,4.2,1,4.2,5.1v7.1h-2.2V331
				c0-1.9-0.7-3.5-2.8-3.5c-1.4,0-2.5,1-2.9,2.2c-0.1,0.3-0.1,0.6-0.1,1v7.2h-2.2V329.2z"/>
			<path class="st0" d="M347.7,332.3c0,2.9,1.9,4.1,4.1,4.1c1.6,0,2.5-0.3,3.3-0.6l0.4,1.6c-0.8,0.3-2.1,0.7-4,0.7
				c-3.7,0-5.9-2.4-5.9-6c0-3.6,2.1-6.4,5.6-6.4c3.9,0,4.9,3.4,4.9,5.6c0,0.4,0,0.8-0.1,1H347.7z M354.1,330.8c0-1.4-0.6-3.5-3-3.5
				c-2.2,0-3.2,2-3.3,3.5H354.1z"/>
			<path class="st0" d="M358.6,335.7c0.6,0.4,1.8,0.9,2.9,0.9c1.6,0,2.3-0.8,2.3-1.8c0-1-0.6-1.6-2.2-2.2c-2.1-0.8-3.2-2-3.2-3.4
				c0-1.9,1.6-3.5,4.1-3.5c1.2,0,2.3,0.3,2.9,0.7l-0.5,1.6c-0.5-0.3-1.3-0.7-2.4-0.7c-1.3,0-2,0.7-2,1.6c0,1,0.7,1.4,2.3,2
				c2.1,0.8,3.1,1.8,3.1,3.6c0,2.1-1.6,3.6-4.5,3.6c-1.3,0-2.5-0.3-3.4-0.8L358.6,335.7z"/>
			<path class="st0" d="M368.4,335.7c0.6,0.4,1.8,0.9,2.9,0.9c1.6,0,2.3-0.8,2.3-1.8c0-1-0.6-1.6-2.2-2.2c-2.1-0.8-3.2-2-3.2-3.4
				c0-1.9,1.6-3.5,4.1-3.5c1.2,0,2.3,0.3,2.9,0.7l-0.5,1.6c-0.5-0.3-1.3-0.7-2.4-0.7c-1.3,0-2,0.7-2,1.6c0,1,0.7,1.4,2.3,2
				c2.1,0.8,3.1,1.8,3.1,3.6c0,2.1-1.6,3.6-4.5,3.6c-1.3,0-2.5-0.3-3.4-0.8L368.4,335.7z"/>
			<path class="st0" d="M383.4,335.3c1,0.6,2.4,1.1,3.9,1.1c2.2,0,3.5-1.2,3.5-2.8c0-1.6-0.9-2.4-3.1-3.3c-2.7-1-4.4-2.4-4.4-4.7
				c0-2.6,2.1-4.5,5.4-4.5c1.7,0,2.9,0.4,3.7,0.8l-0.6,1.8c-0.5-0.3-1.7-0.8-3.2-0.8c-2.3,0-3.1,1.4-3.1,2.5c0,1.6,1,2.3,3.3,3.2
				c2.8,1.1,4.2,2.4,4.2,4.9c0,2.6-1.9,4.8-5.8,4.8c-1.6,0-3.4-0.5-4.2-1.1L383.4,335.3z"/>
			<path class="st0" d="M397.2,332.3c0,2.9,1.9,4.1,4.1,4.1c1.6,0,2.5-0.3,3.3-0.6l0.4,1.6c-0.8,0.3-2.1,0.7-4,0.7
				c-3.7,0-5.9-2.4-5.9-6c0-3.6,2.1-6.4,5.6-6.4c3.9,0,4.9,3.4,4.9,5.6c0,0.4,0,0.8-0.1,1H397.2z M403.6,330.8c0-1.4-0.6-3.5-3-3.5
				c-2.2,0-3.2,2-3.3,3.5H403.6z"/>
			<path class="st0" d="M408.4,329.7c0-1.4,0-2.6-0.1-3.7h1.9l0.1,2.3h0.1c0.5-1.6,1.9-2.6,3.3-2.6c0.2,0,0.4,0,0.6,0.1v2
				c-0.2,0-0.4-0.1-0.7-0.1c-1.5,0-2.6,1.2-2.9,2.8c0,0.3-0.1,0.6-0.1,1v6.4h-2.1V329.7z"/>
			<path class="st0" d="M417.9,325.9l2.3,6.7c0.4,1.1,0.7,2.1,1,3.1h0.1c0.3-1,0.6-2,1-3.1l2.3-6.7h2.3l-4.7,12h-2.1l-4.5-12H417.9z
				"/>
			<path class="st0" d="M431.4,322.6c0,0.7-0.5,1.3-1.4,1.3c-0.8,0-1.3-0.6-1.3-1.3c0-0.8,0.6-1.4,1.4-1.4
				C430.8,321.2,431.4,321.8,431.4,322.6z M428.9,337.9v-12h2.2v12H428.9z"/>
			<path class="st0" d="M443.2,337.4c-0.6,0.3-1.8,0.7-3.4,0.7c-3.6,0-6-2.4-6-6.1c0-3.7,2.5-6.3,6.4-6.3c1.3,0,2.4,0.3,3,0.6
				l-0.5,1.7c-0.5-0.3-1.3-0.6-2.5-0.6c-2.7,0-4.2,2-4.2,4.5c0,2.8,1.8,4.5,4.1,4.5c1.2,0,2-0.3,2.7-0.6L443.2,337.4z"/>
			<path class="st0" d="M446.9,332.3c0,2.9,1.9,4.1,4.1,4.1c1.6,0,2.5-0.3,3.3-0.6l0.4,1.6c-0.8,0.3-2.1,0.7-4,0.7
				c-3.7,0-5.9-2.4-5.9-6c0-3.6,2.1-6.4,5.6-6.4c3.9,0,4.9,3.4,4.9,5.6c0,0.4,0,0.8-0.1,1H446.9z M453.2,330.8c0-1.4-0.6-3.5-3-3.5
				c-2.2,0-3.2,2-3.3,3.5H453.2z"/>
			<path class="st0" d="M457.7,335.7c0.6,0.4,1.8,0.9,2.9,0.9c1.6,0,2.3-0.8,2.3-1.8c0-1-0.6-1.6-2.2-2.2c-2.1-0.8-3.2-2-3.2-3.4
				c0-1.9,1.6-3.5,4.1-3.5c1.2,0,2.3,0.3,2.9,0.7L464,328c-0.5-0.3-1.3-0.7-2.4-0.7c-1.3,0-2,0.7-2,1.6c0,1,0.7,1.4,2.3,2
				c2.1,0.8,3.1,1.8,3.1,3.6c0,2.1-1.6,3.6-4.5,3.6c-1.3,0-2.5-0.3-3.4-0.8L457.7,335.7z"/>
			<path class="st0" d="M484.7,337.3c-0.8,0.4-2.4,0.8-4.4,0.8c-4.7,0-8.2-3-8.2-8.4c0-5.2,3.5-8.7,8.7-8.7c2.1,0,3.4,0.4,4,0.7
				l-0.5,1.8c-0.8-0.4-2-0.7-3.4-0.7c-3.9,0-6.5,2.5-6.5,6.9c0,4.1,2.3,6.7,6.4,6.7c1.3,0,2.6-0.3,3.5-0.7L484.7,337.3z"/>
			<path class="st0" d="M497.9,331.8c0,4.4-3.1,6.3-6,6.3c-3.2,0-5.7-2.4-5.7-6.1c0-4,2.6-6.3,5.9-6.3
				C495.6,325.7,497.9,328.2,497.9,331.8z M488.4,331.9c0,2.6,1.5,4.6,3.6,4.6c2.1,0,3.6-2,3.6-4.6c0-2-1-4.6-3.6-4.6
				C489.5,327.3,488.4,329.7,488.4,331.9z"/>
			<path class="st0" d="M499.5,336.6c0-0.9,0.6-1.6,1.5-1.6c0.9,0,1.5,0.6,1.5,1.6c0,0.9-0.6,1.6-1.5,1.6
				C500.1,338.2,499.5,337.5,499.5,336.6z"/>
		</g>
	</g>
</g>
</svg>
