<?xml version="1.0" encoding="utf-8"?>
<!-- Generator: Adobe Illustrator 28.3.0, SVG Export Plug-In . SVG Version: 6.00 Build 0)  -->
<svg version="1.1" id="Layer_1" xmlns="http://www.w3.org/2000/svg" xmlns:xlink="http://www.w3.org/1999/xlink" x="0px" y="0px"
	 viewBox="0 0 46 46" style="enable-background:new 0 0 46 46;" xml:space="preserve">
<style type="text/css">
	.st0{fill:none;stroke:#6E2F70;stroke-width:3;stroke-linecap:round;stroke-linejoin:round;}
</style>
<g>
	<path class="st0" d="M39.3,13.5v19c0,2.9-0.3,5-1,6.5c0,0,0,0.1,0,0.1c-0.4,0.5-1,0.8-1.6,0.8c-1,0-2.2-0.7-3.6-2.1
		c-1.6-1.7-4-1.6-5.4,0.3l-1.9,2.6c-0.8,1-1.8,1.6-2.8,1.6c-1,0-2-0.5-2.8-1.6l-2-2.6c-1.4-1.8-3.8-2-5.3-0.3l0,0
		c-2.2,2.3-4.1,2.7-5.2,1.3c0,0,0-0.1,0-0.1c-0.7-1.5-1-3.5-1-6.5v-19c0-2.9,0.3-5,1-6.5c0,0,0,0,0-0.1c1.1-1.4,3-1.1,5.2,1.3l0,0
		c1.6,1.7,4,1.5,5.3-0.3l2-2.6C21,4.4,22,3.9,23,3.9c1,0,2,0.5,2.8,1.6L27.7,8c1.4,1.8,3.8,2,5.4,0.3c1.3-1.4,2.5-2.1,3.6-2.1
		c0.7,0,1.2,0.3,1.6,0.8c0,0,0,0,0,0.1C39,8.5,39.3,10.6,39.3,13.5z"/>
	<path class="st0" d="M16.3,19.6h15.3"/>
	<path class="st0" d="M16.3,26.4h11.5"/>
</g>
</svg>
